<svg id="svg" fill="#000000" stroke="#000000" width="200px" height="200px" version="1.1" viewBox="144 144 512 512" xmlns="http://www.w3.org/2000/svg">
    <g id="IconSvg_bgCarrier" stroke-width="0"></g>
    <g id="IconSvg_tracerCarrier" stroke-linecap="round" stroke-linejoin="round" stroke="#CCCCCC"></g>
     <g id="IconSvg_iconCarrier">
      <path xmlns="http://www.w3.org/2000/svg" d="m329.15 233.74c-30.672 0-59.418 6.2539-83.758 17.316-2.9375 1.3555-5.3633 3.6133-6.9219 6.4453-1.5586 2.8359-2.168 6.0938-1.7344 9.3008l11.805 85.961c0.49609 3.6172 2.2852 6.9336 5.0312 9.3359 2.75 2.4023 6.2773 3.7266 9.9258 3.7305h131.15c3.6523-0.003906 7.1758-1.3281 9.9258-3.7305 2.75-2.4023 4.5391-5.7188 5.0312-9.3359l6.1406-44.711h37.473l-17.004 178.54c-0.5625 4.082 0.57031 8.2148 3.1289 11.445 2.5586 3.2305 6.3242 5.2734 10.426 5.6602 4.1016 0.38672 8.1836-0.91797 11.305-3.6133 3.1172-2.6914 5-6.543 5.2109-10.656l18.578-195.07c0.39844-4.2461-1.0156-8.4648-3.8945-11.613-2.8789-3.1484-6.9531-4.9375-11.219-4.918h-49.91l1.5742-11.02c0.42969-3.207-0.17578-6.4648-1.7344-9.3008-1.5586-2.832-3.9883-5.0898-6.9258-6.4453-24.332-11.059-52.93-17.316-83.602-17.316zm0 30.227c22.367 0 42.559 4.4844 60.617 11.18l-8.3438 60.457h-34.637l15.426-37.941c1.4141-3.293 1.6094-6.9766 0.55859-10.398s-3.2812-6.3594-6.293-8.2891c-3.0156-1.9297-6.6172-2.7305-10.164-2.2539-2.6992 0.35938-5.25 1.4453-7.3828 3.1328-2.1367 1.6914-3.7734 3.9258-4.7422 6.4727l-20.152 49.277h-37.312l-8.3438-60.457c18.059-6.6953 38.395-11.18 60.77-11.18zm-142.32 13.855c-3.9883 0.39844-7.6523 2.3633-10.191 5.4648-2.5391 3.0977-3.7422 7.0781-3.3477 11.066l23.457 246.08c1.2617 13.246 12.699 25.82 27.555 25.82h209.55c14.855 0 26.293-12.574 27.551-25.82 0.23828-5.0352-2.0508-9.8594-6.1016-12.859s-9.3359-3.7852-14.082-2.0859c-4.75 1.6953-8.3398 5.6484-9.5703 10.539h-204.99l-21.57-227.97h2.207c4.043 0.054687 7.9453-1.5117 10.824-4.3516 2.8828-2.8398 4.5039-6.7188 4.5039-10.766 0-4.043-1.6211-7.9219-4.5039-10.762-2.8789-2.8398-6.7812-4.4102-10.824-4.3516h-18.895c-0.52344-0.027344-1.0508-0.027344-1.5742 0zm373.92 63.766c-3.9805 0.082031-7.7695 1.7305-10.539 4.5898-2.7734 2.8594-4.3047 6.6992-4.2617 10.68v123.91l-26.133-20.152c-2.8086-2.2461-6.3281-3.418-9.9219-3.3047-4.1641 0.15234-8.082 2.0234-10.824 5.1641-2.7383 3.1445-4.0625 7.2773-3.6523 11.426 0.41016 4.1484 2.5156 7.9453 5.8203 10.488l50.535 39.203c2.6562 2.0664 5.9258 3.1914 9.2891 3.1914 3.3672 0 6.6367-1.125 9.2891-3.1914l50.539-39.203c3.4453-2.3594 5.7617-6.0352 6.3984-10.16 0.64062-4.125-0.45703-8.332-3.0273-11.621-2.5703-3.2891-6.3867-5.3672-10.543-5.7461s-8.2852 0.98047-11.406 3.7539l-26.133 20.152v-123.91c0.042969-4.0898-1.5742-8.0234-4.4844-10.902-2.9062-2.8789-6.8555-4.4531-10.945-4.3672z"></path>

      </g>
      </svg>